<mxfile host="app.diagrams.net" modified="2023-10-20T07:42:54.423Z" agent="Mozilla/5.0 (Windows NT 10.0; Win64; x64) AppleWebKit/537.36 (KHTML, like Gecko) Chrome/105.0.0.0 Safari/537.36" version="21.7.5" etag="E9r56L-mBU4XxZnLR7e1" type="github">
  <diagram name="第 1 页" id="IxkDe7RFWfhBDoYSKtcj">
    <mxGraphModel>
      <root>
        <mxCell id="0" />
        <mxCell id="1" parent="0" />
      </root>
    </mxGraphModel>
  </diagram>
</mxfile>
